<svg xmlns="http://www.w3.org/2000/svg" viewBox="0 0 200 200" fill="none">
  <defs>
    <linearGradient id="prs2" x1="0" y1="0" x2="1" y2="1">
      <stop offset="0%" stop-color="#1A3FC4"/>
      <stop offset="100%" stop-color="#4F72F0"/>
    </linearGradient>
    <linearGradient id="gs" x1="0" y1="0" x2="1" y2="1">
      <stop offset="0%" stop-color="#00A86B"/>
      <stop offset="100%" stop-color="#00D688"/>
    </linearGradient>
    <linearGradient id="accs" x1="0" y1="0" x2="1" y2="1">
      <stop offset="0%" stop-color="#FF5C00"/>
      <stop offset="100%" stop-color="#FF9040"/>
    </linearGradient>
  </defs>

  <!-- Outer glow ring -->
  <circle cx="100" cy="100" r="80" fill="#E6F9F3" fill-opacity="0.6"/>
  <circle cx="100" cy="100" r="66" fill="#E6F9F3"/>

  <!-- Main success circle -->
  <circle cx="100" cy="100" r="52" fill="url(#gs)"/>

  <!-- Checkmark -->
  <path d="M76 100 L92 116 L124 84" stroke="white" stroke-width="7" stroke-linecap="round" stroke-linejoin="round"/>

  <!-- Confetti pieces -->
  <!-- Orange squares -->
  <rect x="32" y="48" width="10" height="10" rx="2" fill="url(#accs)" transform="rotate(25 37 53)"/>
  <rect x="155" y="38" width="8" height="8" rx="2" fill="url(#accs)" transform="rotate(-18 159 42)"/>
  <rect x="28" y="140" width="7" height="7" rx="1.5" fill="url(#accs)" transform="rotate(40 31 143)"/>
  <rect x="162" y="145" width="9" height="9" rx="2" fill="url(#accs)" transform="rotate(-30 166 149)"/>

  <!-- Blue circles -->
  <circle cx="48" cy="68" r="6" fill="url(#prs2)"/>
  <circle cx="154" cy="62" r="5" fill="url(#prs2)"/>
  <circle cx="44" cy="132" r="4" fill="url(#prs2)"/>
  <circle cx="158" cy="130" r="6" fill="url(#prs2)"/>

  <!-- Stars -->
  <path d="M68 42 L70 36 L72 42 L78 42 L73 46 L75 52 L70 48 L65 52 L67 46 L62 42 Z" fill="#F59E0B" fill-opacity="0.8"/>
  <path d="M138 38 L139.5 34 L141 38 L145 38 L142 40.5 L143 45 L139.5 42.5 L136 45 L137 40.5 L134 38 Z" fill="#F59E0B" fill-opacity="0.7"/>

  <!-- Green dots -->
  <circle cx="170" cy="90" r="5" fill="url(#gs)" fill-opacity="0.7"/>
  <circle cx="30" cy="100" r="4" fill="url(#gs)" fill-opacity="0.7"/>
  <circle cx="80" cy="170" r="5" fill="url(#gs)" fill-opacity="0.6"/>
  <circle cx="122" cy="168" r="4" fill="url(#gs)" fill-opacity="0.6"/>

  <!-- Horizontal lines (motion) -->
  <rect x="16" y="96" width="14" height="3" rx="1.5" fill="#1A3FC4" fill-opacity="0.25"/>
  <rect x="170" y="96" width="14" height="3" rx="1.5" fill="#1A3FC4" fill-opacity="0.25"/>
  <rect x="20" y="104" width="8" height="3" rx="1.5" fill="#1A3FC4" fill-opacity="0.15"/>
  <rect x="172" y="104" width="8" height="3" rx="1.5" fill="#1A3FC4" fill-opacity="0.15"/>
</svg>
